HIERARCHY
ROOT Hips
{
	OFFSET -3.958830 18.904000 13.208200
	CHANNELS 6 Xposition Yposition Zposition Zrotation Yrotation Xrotation 
	JOINT LHipJoint
	{
		OFFSET 0.000000 0.000000 0.000000
		CHANNELS 3 Zrotation Yrotation Xrotation
		JOINT LeftUpLeg
		{
			OFFSET 1.800000 -1.400000 0.085000
			CHANNELS 3 Zrotation Yrotation Xrotation
			JOINT LeftLeg
			{
				OFFSET 2.215000 -6.000000 0.000000
				CHANNELS 3 Zrotation Yrotation Xrotation
				JOINT LeftFoot
				{
					OFFSET 2.500000 -6.900000 0.000000
					CHANNELS 3 Zrotation Yrotation Xrotation
					JOINT LeftToeBase
					{
						OFFSET 0.200000 -0.500000 1.950000
						CHANNELS 3 Zrotation Yrotation Xrotation
						End Site
						{
							OFFSET 0.000000 0.000000 0.000000
						}
					}
				}
			}
		}
	}
	JOINT RHipJoint
	{
		OFFSET 0.000000 0.000000 0.000000
		CHANNELS 3 Zrotation Yrotation Xrotation
		JOINT RightUpLeg
		{
			OFFSET -1.800000 -1.400000 0.085000
			CHANNELS 3 Zrotation Yrotation Xrotation
			JOINT RightLeg
			{
				OFFSET -2.215000 -6.000000 0.000000
				CHANNELS 3 Zrotation Yrotation Xrotation
				JOINT RightFoot
				{
					OFFSET -2.500000 -6.900000 0.000000
					CHANNELS 3 Zrotation Yrotation Xrotation
					JOINT RightToeBase
					{
						OFFSET -0.200000 -0.500000 1.950000
						CHANNELS 3 Zrotation Yrotation Xrotation
						End Site
						{
							OFFSET 0.000000 0.000000 0.000000
						}
					}
				}
			}
		}
	}
	JOINT LowerBack
	{
		OFFSET 0.000000 0.000000 0.000000
		CHANNELS 3 Zrotation Yrotation Xrotation
		JOINT Spine
		{
			OFFSET -0.087000 1.940000 -0.288900
			CHANNELS 3 Zrotation Yrotation Xrotation
			JOINT Spine1
			{
				OFFSET 0.000000 1.950000 0.060000
				CHANNELS 3 Zrotation Yrotation Xrotation
				JOINT Neck
				{
					OFFSET 0.000000 0.000000 0.000000
					CHANNELS 3 Zrotation Yrotation Xrotation
					JOINT Neck1
					{
						OFFSET 0.000000 1.600000 0.340000
						CHANNELS 3 Zrotation Yrotation Xrotation
						JOINT Head
						{
							OFFSET 0.000000 1.667000 -0.240000
							CHANNELS 3 Zrotation Yrotation Xrotation
							End Site
							{
								OFFSET 0.000000 0.000000 0.000000
							}
						}
					}
				}
				JOINT LeftShoulder
				{
					OFFSET 0.000000 0.000000 0.000000
					CHANNELS 3 Zrotation Yrotation Xrotation
					JOINT LeftArm
					{
						OFFSET 2.700000 1.550000 -0.730000
						CHANNELS 3 Zrotation Yrotation Xrotation
						JOINT LeftForeArm
						{
							OFFSET 5.450000 0.000000 0.000000
							CHANNELS 3 Zrotation Yrotation Xrotation
							JOINT LeftHand
							{
								OFFSET 3.450000 0.000000 0.000000
								CHANNELS 3 Zrotation Yrotation Xrotation
								JOINT LeftHandIndex1
								{
									OFFSET 0.750000 0.000000 0.000000
									CHANNELS 3 Zrotation Yrotation Xrotation
									End Site
									{
										OFFSET 0.000000 0.000000 0.000000
									}
								}
							}
						}
					}
				}
				JOINT RightShoulder
				{
					OFFSET 0.000000 0.000000 0.000000
					CHANNELS 3 Zrotation Yrotation Xrotation
					JOINT RightArm
					{
						OFFSET -2.700000 1.550000 -0.730000
						CHANNELS 3 Zrotation Yrotation Xrotation
						JOINT RightForeArm
						{
							OFFSET -5.450000 0.000000 0.000000
							CHANNELS 3 Zrotation Yrotation Xrotation
							JOINT RightHand
							{
								OFFSET -3.450000 0.000000 0.000000
								CHANNELS 3 Zrotation Yrotation Xrotation
								JOINT RightHandIndex1
								{
									OFFSET -0.750000 0.000000 0.000000
									CHANNELS 3 Zrotation Yrotation Xrotation
									End Site
									{
										OFFSET 0.000000 0.000000 0.000000
									}
								}
							}
						}
					}
				}
			}
		}
	}
}
MOTION
Frames: 14
Frame Time: 0.016667
-9.249760 16.973450 0.190690 -4.161953 -5.395198 -1.304819 -15.093097 13.622935 4.054290 7.990733 -5.251767 -9.860065 -20.742456 18.076314 39.788818 0.447200 10.353003 1.001463 0.635430 -0.029320 0.679690 18.254908 -10.302703 2.745101 4.442802 0.813482 -7.781953 -2.391909 -3.650818 19.503026 -0.591004 -3.083609 3.311507 0.038860 0.037780 0.187130 -3.555702 -3.568161 -8.338613 14.575996 -4.717249 17.834641 -8.708485 -0.370022 -10.838360 3.125262 -7.450816 -12.793358 -22.581226 16.080207 49.137684 13.390580 4.250080 -20.488850 -22.752100 -4.102892 1.412863 -27.452687 -1.148941 -2.243439 10.067514 -20.561148 -2.744103 -3.427269 2.550730 1.306460 -0.305820 0.228600 0.122150 17.145485 9.542177 8.172963 21.509335 -3.887842 -4.806998 -14.993383 9.806740 -0.194826 2.231168 -0.929861 -0.424020 0.354170 -0.014450 -0.481590 
-9.271500 16.969800 0.205790 -4.165330 -7.250901 -1.939348 -15.088749 13.487679 4.135159 9.505987 -5.538404 -10.604525 -21.921779 19.122569 40.841806 0.543957 10.761127 0.862307 0.667360 0.016260 0.681900 18.284141 -10.273803 2.674404 4.435574 0.732487 -7.354344 -2.890045 -3.658234 20.625405 -0.627022 -3.230250 3.255759 0.063670 0.045720 0.208910 -3.580898 -3.482398 -8.305910 14.338939 -4.762711 18.524150 -8.667479 -0.318795 -9.094706 2.826425 -7.694622 -12.811855 -22.993512 16.628492 47.085931 13.413040 4.878880 -20.826600 -22.770005 -5.251961 1.617671 -27.395179 -2.470853 -2.452177 8.282516 -23.527060 -2.748402 -3.405233 2.607760 1.285930 -0.293970 0.232640 0.140040 17.745384 10.466136 8.375657 21.735284 -3.539929 -4.902182 -15.852121 9.821171 -0.337745 2.218372 -0.981432 -0.401440 0.346170 -0.027790 -0.467190 
-9.295180 16.973520 0.224910 -3.498712 -8.534760 -2.693104 -15.106370 13.467068 4.169534 9.947434 -5.828873 -11.059951 -21.745807 19.226630 41.602783 0.547217 10.892374 0.803673 0.660190 0.011960 0.677630 18.266634 -10.313078 2.599616 3.618888 0.474470 -6.590783 -2.999550 -3.781152 20.971156 -0.637250 -3.351794 3.208911 0.067630 0.053640 0.231910 -3.508677 -3.482027 -8.291786 12.649244 -4.447692 19.131872 -8.016454 -0.251390 -7.210789 2.569270 -7.530345 -12.916445 -22.432371 16.593606 45.738200 12.860250 5.533790 -21.047940 -22.443937 -6.629589 1.911421 -27.216383 -3.837897 -2.693643 5.997514 -26.852259 -2.592925 -3.407196 2.649640 1.272120 -0.271300 0.227420 0.128980 18.028881 11.392774 8.706326 22.532469 -3.648313 -5.095510 -16.684412 9.874942 -0.452349 2.199067 -1.013751 -0.396730 0.332740 -0.012530 -0.470080 
-9.311600 16.985020 0.227350 -2.878785 -9.287305 -3.718810 -15.140164 13.526879 4.147114 10.071499 -6.147154 -11.592739 -20.578103 18.495719 41.964514 0.462677 10.759034 0.826554 0.651380 0.017630 0.664890 18.227989 -10.328808 2.561675 2.963628 0.091154 -5.350892 -3.129633 -3.878252 20.545400 -0.647670 -3.441164 3.191377 0.078660 0.063190 0.236590 -3.385177 -3.632956 -8.265175 10.774588 -4.409226 20.177204 -7.086460 -0.422167 -5.276727 2.346276 -7.396748 -13.189028 -22.048921 16.787769 44.479970 12.066360 6.429660 -21.532530 -21.961378 -8.250547 2.395906 -27.009952 -4.813331 -3.153271 3.713599 -30.756860 -2.375371 -3.398692 2.679560 1.266220 -0.247680 0.219450 0.120490 18.159466 12.587401 9.118146 23.024680 -3.518627 -5.190860 -17.096481 9.611592 -0.512829 2.172558 -1.027872 -0.404080 0.337620 0.002960 -0.476740 
-9.330100 17.000060 0.227150 -1.823307 -10.776611 -4.604141 -15.166438 13.604829 4.095862 9.655555 -6.121277 -12.185706 -19.236611 17.470746 41.533991 0.441945 10.341031 0.925135 0.710910 0.117690 0.685890 18.182547 -10.408538 2.532760 1.719115 -0.274628 -4.122282 -3.148394 -3.883001 19.256243 -0.671666 -3.476433 3.170312 0.095630 0.005910 0.285730 -3.244961 -3.681514 -8.236383 8.355801 -3.655194 20.665915 -6.068902 -0.064374 -2.905495 2.106777 -6.999262 -13.734400 -21.011181 16.847502 43.907689 11.557010 7.453220 -21.083340 -21.433590 -10.330869 3.125059 -26.513250 -5.425433 -3.943347 1.495589 -35.204777 -2.033252 -3.341045 2.847245 1.198150 -0.243940 0.252420 0.127110 18.270687 14.344433 9.823416 23.862645 -3.457762 -5.085045 -17.730784 8.037658 -0.472577 2.219663 -1.138075 -0.301540 0.237380 -0.048190 -0.450010 
-9.328820 17.018030 0.221760 -1.635427 -12.237872 -5.174413 -15.161408 13.675378 3.999004 9.733123 -6.029822 -13.128606 -17.501118 16.174246 40.768702 0.253128 9.957418 1.066216 0.665210 0.056990 0.681130 18.179064 -10.445905 2.543756 1.175648 -0.488034 -3.268298 -3.072795 -3.936779 18.232273 -0.657403 -3.497149 3.184220 0.093050 0.064720 0.265720 -3.216429 -3.741105 -8.161730 7.830590 -3.435701 21.421885 -5.927262 0.178498 -1.125562 2.018057 -7.009155 -13.829311 -20.580970 16.764428 42.141344 10.319730 8.077880 -21.369140 -21.151707 -11.719115 3.279656 -25.871926 -6.602323 -4.456429 -0.755730 -39.281032 -1.606773 -3.366702 2.809150 1.210660 -0.206550 0.220130 0.121690 18.111496 15.550564 10.276382 24.370121 -2.928592 -5.024187 -17.877040 6.920479 -0.382313 2.202442 -1.114370 -0.370170 0.306840 -0.016580 -0.468420 
-9.331080 17.034620 0.220390 -1.346008 -13.875688 -5.613556 -15.132152 13.765367 3.841570 9.703437 -5.517040 -13.613475 -15.881061 14.540556 38.341252 0.032881 9.254922 1.312740 0.661840 0.055480 0.678050 18.192137 -10.523953 2.572212 0.446301 -0.648330 -2.543268 -2.805272 -3.977548 16.974518 -0.652109 -3.513100 3.195065 0.112560 0.105160 0.250740 -3.241389 -3.734630 -8.040657 7.511420 -3.176703 21.758399 -5.828907 0.428969 0.648463 1.642922 -7.326964 -13.904050 -20.953155 16.736845 40.071612 9.747620 8.214070 -21.663390 -20.557492 -12.864011 3.400989 -25.435370 -8.054006 -4.844459 -2.363880 -43.263540 -1.259123 -3.368159 2.813108 1.203050 -0.183370 0.196870 0.135350 18.192525 16.671793 10.677834 24.513019 -2.338945 -4.854446 -18.051099 5.830201 -0.312897 2.197042 -1.127764 -0.402410 0.353490 -0.012960 -0.466750 
-9.333330 17.051430 0.218340 -0.927010 -15.572616 -5.885751 -15.106442 13.805064 3.724405 9.818908 -5.095289 -14.311221 -14.722263 13.325289 36.140710 -0.161521 8.687757 1.522481 0.650080 0.048200 0.659330 18.207665 -10.588825 2.590314 -0.392468 -0.744002 -2.073008 -2.423200 -4.003074 15.588998 -0.629733 -3.524935 3.211018 0.139750 0.164590 0.223020 -3.269718 -3.688975 -7.941034 6.980458 -2.776069 21.624324 -5.690657 0.764393 2.525739 1.097943 -7.374484 -13.994444 -20.556010 16.734757 38.192495 9.759980 8.413530 -21.004870 -19.900091 -14.320719 3.621963 -24.500499 -9.389761 -5.249242 -3.496435 -47.250178 -0.983268 -3.380041 2.820730 1.185870 -0.147470 0.152450 0.152780 18.526888 17.842978 11.064318 24.828942 -1.881840 -4.790667 -18.905875 4.767354 -0.300881 2.182137 -1.162664 -0.450730 0.408340 -0.002320 -0.465510 
-9.339980 17.064430 0.218220 -0.526570 -16.902056 -6.115225 -15.098345 13.898717 3.589401 9.743864 -4.607092 -14.949426 -13.180559 11.874474 33.449008 -0.376782 7.979934 1.767283 0.629370 0.021750 0.656800 18.200254 -10.633129 2.631116 -1.037257 -0.804902 -1.583177 -2.070829 -4.035480 14.351830 -0.612730 -3.538474 3.210295 0.147080 0.193950 0.215170 -3.238856 -3.744136 -7.857728 6.173237 -2.345878 21.538185 -5.222844 1.045319 3.941446 0.640292 -7.313621 -14.036849 -20.134672 16.739281 37.048645 9.292680 8.822990 -20.893000 -19.254938 -15.455581 3.697817 -23.357215 -10.842215 -5.402164 -4.429712 -50.561394 -0.624473 -3.401459 2.828339 1.179930 -0.121730 0.125670 0.142610 18.745271 18.682429 11.390227 25.288346 -1.738726 -4.912143 -19.873297 4.780760 -0.397691 2.159559 -1.184452 -0.483760 0.431990 0.018260 -0.476870 
-9.340500 17.066040 0.219730 -0.323638 -18.070616 -5.895278 -15.064502 13.978165 3.456398 9.643067 -4.105526 -15.854534 -11.441614 10.355290 30.398983 -0.593242 7.202591 2.033116 0.622230 -0.003590 0.638690 18.218227 -10.703034 2.657785 -1.435709 -0.727171 -1.847135 -1.762639 -4.052916 13.910290 -0.583823 -3.548552 3.196049 0.152710 0.225440 0.236630 -3.287930 -3.732759 -7.741950 6.110786 -2.217586 21.071774 -5.066058 1.094938 4.670442 0.069287 -7.558475 -13.900589 -20.249296 16.784003 35.252516 9.378780 8.713320 -20.363400 -18.647806 -15.899751 3.603839 -22.242172 -12.023678 -5.234589 -6.028487 -54.084381 0.176626 -3.430060 2.900227 1.163170 -0.094930 0.091800 0.142330 19.220473 18.944645 11.494021 25.465877 -1.786920 -5.039522 -20.892207 5.438795 -0.577234 2.127505 -1.235529 -0.493350 0.421600 0.044460 -0.477530 
-9.337690 17.074610 0.219760 0.215399 -18.829388 -6.079864 -15.048019 14.098058 3.322083 8.917483 -3.543722 -16.055172 -9.652167 8.702583 26.347205 -0.777163 6.245006 2.389838 0.635820 0.024910 0.635130 18.212273 -10.767762 2.685794 -2.260656 -0.756008 -1.583327 -1.481528 -4.064785 13.093848 -0.580039 -3.565281 3.192928 0.175660 0.229360 0.223830 -3.275567 -3.809357 -7.645967 5.327278 -2.166337 21.037935 -4.656371 0.985705 5.474977 -0.471814 -7.720042 -13.995068 -20.420736 16.927602 34.036248 9.489450 8.862920 -20.409110 -17.932619 -16.602352 3.656401 -20.838441 -12.895243 -5.304345 -7.051467 -57.650782 0.801004 -3.414550 2.952434 1.143140 -0.091760 0.080950 0.152700 19.606427 19.446884 11.772412 25.186900 -1.893157 -4.935607 -20.819908 5.962375 -0.693984 2.116568 -1.262400 -0.493890 0.426540 0.032540 -0.470010 
-9.330970 17.074840 0.234650 0.162670 -19.704268 -5.890870 -15.023746 14.149901 3.207612 8.786458 -2.904305 -16.193770 -8.286945 7.317200 21.735196 -0.916916 5.405827 2.720556 0.645440 0.037090 0.629480 18.230091 -10.781608 2.741181 -2.500468 -0.770729 -1.284672 -1.118745 -4.070338 11.992653 -0.581562 -3.592913 3.194364 0.183790 0.247490 0.235100 -3.323723 -3.834220 -7.576806 5.716967 -2.270209 20.650346 -4.679512 0.875525 6.166317 -0.708679 -7.817180 -14.128429 -20.406570 17.065240 32.945389 8.982170 9.142720 -19.796690 -17.348478 -17.237907 3.747395 -19.350830 -13.444934 -5.282346 -7.922677 -60.875998 1.422523 -3.422000 3.012976 1.116350 -0.067900 0.065660 0.170090 19.474280 19.861668 12.022308 25.037450 -1.925901 -4.733130 -20.189381 6.476331 -0.769873 2.098704 -1.292166 -0.485800 0.417240 0.022490 -0.461220 
-9.315200 17.072400 0.255350 -0.531267 -20.653670 -5.563289 -14.984484 14.111333 3.148021 9.344368 -2.274339 -16.014351 -7.607273 6.182995 16.370403 -0.990598 4.709207 2.976843 0.654570 0.062250 0.625290 18.276214 -10.752195 2.807233 -2.310088 -0.838660 -0.779256 -0.557427 -4.122160 10.905900 -0.602228 -3.626000 3.175477 0.187440 0.227990 0.248070 -3.452972 -3.791442 -7.551584 7.226999 -2.764089 20.473942 -5.072564 0.571533 6.537600 -0.792389 -8.054103 -14.449050 -21.063841 17.698746 32.451446 8.948470 9.610520 -19.716070 -17.222331 -17.842247 4.065055 -18.234372 -13.199588 -5.575143 -6.370854 -64.362468 0.556913 -3.408866 3.066368 1.091930 -0.071510 0.075630 0.167260 19.500764 20.299723 12.203952 24.702581 -1.829660 -4.692474 -20.336067 6.939263 -0.859125 2.106752 -1.317648 -0.453800 0.384900 0.014290 -0.449500 
-9.296480 17.063610 0.277100 -0.771089 -21.577541 -5.117569 -14.970717 14.006665 3.197075 9.475747 -1.986025 -15.881266 -7.341905 5.242694 11.212986 -1.017268 4.257553 3.165732 0.651100 0.058690 0.616390 18.304977 -10.704768 2.800499 -2.616627 -0.814613 -0.800628 0.122518 -4.205035 10.167388 -0.605594 -3.644343 3.168506 0.176510 0.237600 0.272280 -3.531358 -3.744196 -7.561002 8.117735 -3.044020 19.918354 -5.446564 0.336715 6.711686 -0.777721 -8.136159 -14.661025 -21.364084 18.404969 32.280171 8.709710 10.232030 -18.871170 -17.141608 -18.203367 4.318509 -17.187026 -12.967940 -5.533090 -5.743385 -67.867941 0.219093 -3.422598 3.115167 1.071120 -0.055540 0.074960 0.174830 19.384949 20.528911 12.259559 24.595557 -1.456342 -4.513633 -20.028038 6.892707 -0.834123 2.115808 -1.336173 -0.434500 0.359420 0.011580 -0.438100 
